<svg id="visual" viewBox="0 0 900 600" width="900" height="600" xmlns="http://www.w3.org/2000/svg" xmlns:xlink="http://www.w3.org/1999/xlink" version="1.1"><path d="M0 55L90 49L180 67L270 61L360 55L450 79L540 67L630 55L720 103L810 49L900 55L900 0L810 0L720 0L630 0L540 0L450 0L360 0L270 0L180 0L90 0L0 0Z" fill="#bbcbcb"></path><path d="M0 109L90 85L180 103L270 133L360 115L450 157L540 133L630 121L720 139L810 109L900 109L900 53L810 47L720 101L630 53L540 65L450 77L360 53L270 59L180 65L90 47L0 53Z" fill="#9fb7b7"></path><path d="M0 229L90 307L180 253L270 307L360 307L450 295L540 331L630 289L720 283L810 241L900 283L900 107L810 107L720 137L630 119L540 131L450 155L360 113L270 131L180 101L90 83L0 107Z" fill="#83a3a2"></path><path d="M0 271L90 337L180 313L270 355L360 349L450 337L540 361L630 319L720 313L810 295L900 313L900 281L810 239L720 281L630 287L540 329L450 293L360 305L270 305L180 251L90 305L0 227Z" fill="#68908e"></path><path d="M0 421L90 439L180 463L270 463L360 481L450 433L540 481L630 487L720 421L810 457L900 445L900 311L810 293L720 311L630 317L540 359L450 335L360 347L270 353L180 311L90 335L0 269Z" fill="#4c7d7a"></path><path d="M0 493L90 505L180 493L270 511L360 529L450 487L540 547L630 523L720 475L810 523L900 511L900 443L810 455L720 419L630 485L540 479L450 431L360 479L270 461L180 461L90 437L0 419Z" fill="#2f6a67"></path><path d="M0 601L90 601L180 601L270 601L360 601L450 601L540 601L630 601L720 601L810 601L900 601L900 509L810 521L720 473L630 521L540 545L450 485L360 527L270 509L180 491L90 503L0 491Z" fill="#055854"></path></svg>