<svg id="visual" viewBox="0 0 900 600" width="900" height="600" xmlns="http://www.w3.org/2000/svg" xmlns:xlink="http://www.w3.org/1999/xlink" version="1.1"><rect x="0" y="0" width="900" height="600" fill="#000"></rect><path d="M0 165L13.7 168.5C27.3 172 54.7 179 82 185.2C109.3 191.3 136.7 196.7 163.8 196.3C191 196 218 190 245.2 191.7C272.3 193.3 299.7 202.7 327 202.5C354.3 202.3 381.7 192.7 409 188.5C436.3 184.3 463.7 185.7 491 181.7C518.3 177.7 545.7 168.3 573 160C600.3 151.7 627.7 144.3 654.8 142C682 139.7 709 142.3 736.2 151C763.3 159.7 790.7 174.3 818 180.7C845.3 187 872.7 185 886.3 184L900 183L900 601L886.3 601C872.7 601 845.3 601 818 601C790.7 601 763.3 601 736.2 601C709 601 682 601 654.8 601C627.7 601 600.3 601 573 601C545.7 601 518.3 601 491 601C463.7 601 436.3 601 409 601C381.7 601 354.3 601 327 601C299.7 601 272.3 601 245.2 601C218 601 191 601 163.8 601C136.7 601 109.3 601 82 601C54.7 601 27.3 601 13.7 601L0 601Z" fill="#ffffff"></path><path d="M0 271L13.7 265.8C27.3 260.7 54.7 250.3 82 250.3C109.3 250.3 136.7 260.7 163.8 265.3C191 270 218 269 245.2 261.2C272.3 253.3 299.7 238.7 327 236.3C354.3 234 381.7 244 409 244C436.3 244 463.7 234 491 233.7C518.3 233.3 545.7 242.7 573 246.8C600.3 251 627.7 250 654.8 242.7C682 235.3 709 221.7 736.2 222.8C763.3 224 790.7 240 818 251.2C845.3 262.3 872.7 268.7 886.3 271.8L900 275L900 601L886.3 601C872.7 601 845.3 601 818 601C790.7 601 763.3 601 736.2 601C709 601 682 601 654.8 601C627.7 601 600.3 601 573 601C545.7 601 518.3 601 491 601C463.7 601 436.3 601 409 601C381.7 601 354.3 601 327 601C299.7 601 272.3 601 245.2 601C218 601 191 601 163.8 601C136.7 601 109.3 601 82 601C54.7 601 27.3 601 13.7 601L0 601Z" fill="#dae7e7"></path><path d="M0 280L13.7 276.3C27.3 272.7 54.7 265.3 82 272.7C109.3 280 136.7 302 163.8 310C191 318 218 312 245.2 312.7C272.3 313.3 299.7 320.7 327 316.3C354.3 312 381.7 296 409 296.7C436.3 297.3 463.7 314.7 491 319.7C518.3 324.7 545.7 317.3 573 311.2C600.3 305 627.7 300 654.8 303.3C682 306.7 709 318.3 736.2 319.7C763.3 321 790.7 312 818 312C845.3 312 872.7 321 886.3 325.5L900 330L900 601L886.3 601C872.7 601 845.3 601 818 601C790.7 601 763.3 601 736.2 601C709 601 682 601 654.8 601C627.7 601 600.3 601 573 601C545.7 601 518.3 601 491 601C463.7 601 436.3 601 409 601C381.7 601 354.3 601 327 601C299.7 601 272.3 601 245.2 601C218 601 191 601 163.8 601C136.7 601 109.3 601 82 601C54.7 601 27.3 601 13.7 601L0 601Z" fill="#b5d0d0"></path><path d="M0 339L13.7 344.3C27.3 349.7 54.7 360.3 82 356.8C109.3 353.3 136.7 335.7 163.8 336.5C191 337.3 218 356.7 245.2 358.5C272.3 360.3 299.7 344.7 327 343C354.3 341.3 381.7 353.7 409 352.5C436.3 351.3 463.7 336.7 491 332.8C518.3 329 545.7 336 573 348.5C600.3 361 627.7 379 654.8 384.3C682 389.7 709 382.3 736.2 379.7C763.3 377 790.7 379 818 379.8C845.3 380.7 872.7 380.3 886.3 380.2L900 380L900 601L886.3 601C872.7 601 845.3 601 818 601C790.7 601 763.3 601 736.2 601C709 601 682 601 654.8 601C627.7 601 600.3 601 573 601C545.7 601 518.3 601 491 601C463.7 601 436.3 601 409 601C381.7 601 354.3 601 327 601C299.7 601 272.3 601 245.2 601C218 601 191 601 163.8 601C136.7 601 109.3 601 82 601C54.7 601 27.3 601 13.7 601L0 601Z" fill="#91b9b9"></path><path d="M0 402L13.7 404C27.3 406 54.7 410 82 417.7C109.3 425.3 136.7 436.7 163.8 441.8C191 447 218 446 245.2 445.8C272.3 445.7 299.7 446.3 327 444C354.3 441.7 381.7 436.3 409 434.2C436.3 432 463.7 433 491 433.7C518.3 434.3 545.7 434.7 573 427.8C600.3 421 627.7 407 654.8 410.3C682 413.7 709 434.3 736.2 434.2C763.3 434 790.7 413 818 400.8C845.3 388.7 872.7 385.3 886.3 383.7L900 382L900 601L886.3 601C872.7 601 845.3 601 818 601C790.7 601 763.3 601 736.2 601C709 601 682 601 654.8 601C627.7 601 600.3 601 573 601C545.7 601 518.3 601 491 601C463.7 601 436.3 601 409 601C381.7 601 354.3 601 327 601C299.7 601 272.3 601 245.2 601C218 601 191 601 163.8 601C136.7 601 109.3 601 82 601C54.7 601 27.3 601 13.7 601L0 601Z" fill="#6ca3a3"></path><path d="M0 452L13.7 454.7C27.3 457.3 54.7 462.7 82 460.5C109.3 458.3 136.7 448.7 163.8 452.5C191 456.3 218 473.7 245.2 476.3C272.3 479 299.7 467 327 471.3C354.3 475.7 381.7 496.3 409 498.8C436.3 501.3 463.7 485.7 491 484.7C518.3 483.7 545.7 497.3 573 502.7C600.3 508 627.7 505 654.8 503.2C682 501.3 709 500.7 736.2 500.8C763.3 501 790.7 502 818 497.8C845.3 493.7 872.7 484.3 886.3 479.7L900 475L900 601L886.3 601C872.7 601 845.3 601 818 601C790.7 601 763.3 601 736.2 601C709 601 682 601 654.8 601C627.7 601 600.3 601 573 601C545.7 601 518.3 601 491 601C463.7 601 436.3 601 409 601C381.7 601 354.3 601 327 601C299.7 601 272.3 601 245.2 601C218 601 191 601 163.8 601C136.7 601 109.3 601 82 601C54.7 601 27.3 601 13.7 601L0 601Z" fill="#448d8d"></path><path d="M0 542L13.7 538.3C27.3 534.7 54.7 527.3 82 520.8C109.3 514.3 136.7 508.7 163.8 510.8C191 513 218 523 245.2 528.3C272.3 533.7 299.7 534.3 327 541.3C354.3 548.3 381.7 561.7 409 565.5C436.3 569.3 463.7 563.7 491 558.7C518.3 553.7 545.7 549.3 573 548.5C600.3 547.7 627.7 550.3 654.8 555C682 559.7 709 566.3 736.2 568.7C763.3 571 790.7 569 818 560.7C845.3 552.3 872.7 537.7 886.3 530.3L900 523L900 601L886.3 601C872.7 601 845.3 601 818 601C790.7 601 763.3 601 736.2 601C709 601 682 601 654.8 601C627.7 601 600.3 601 573 601C545.7 601 518.3 601 491 601C463.7 601 436.3 601 409 601C381.7 601 354.3 601 327 601C299.7 601 272.3 601 245.2 601C218 601 191 601 163.8 601C136.7 601 109.3 601 82 601C54.7 601 27.3 601 13.7 601L0 601Z" fill="#007778"></path></svg>